<mxfile host="app.diagrams.net" agent="Mozilla/5.0 (Windows NT 10.0; Win64; x64; rv:138.0) Gecko/20100101 Firefox/138.0" version="26.3.0">
  <diagram name="Страница — 1" id="gWu8K9t5HJfV-4QjmjIE">
    <mxGraphModel dx="772" dy="560" grid="1" gridSize="10" guides="1" tooltips="1" connect="1" arrows="1" fold="1" page="1" pageScale="1" pageWidth="827" pageHeight="1169" math="0" shadow="0">
      <root>
        <mxCell id="0" />
        <mxCell id="1" parent="0" />
        <mxCell id="lYoupmjdc9CDtrk6pOzM-1" value="" style="swimlane;html=1;childLayout=stackLayout;resizeParent=1;resizeParentMax=0;horizontal=0;startSize=20;horizontalStack=0;" vertex="1" parent="1">
          <mxGeometry x="120" y="160" width="690" height="360" as="geometry" />
        </mxCell>
        <mxCell id="lYoupmjdc9CDtrk6pOzM-2" value="" style="swimlane;html=1;startSize=20;horizontal=0;" vertex="1" parent="lYoupmjdc9CDtrk6pOzM-1">
          <mxGeometry x="20" width="670" height="120" as="geometry" />
        </mxCell>
        <mxCell id="lYoupmjdc9CDtrk6pOzM-3" style="edgeStyle=orthogonalEdgeStyle;rounded=0;orthogonalLoop=1;jettySize=auto;html=1;exitX=1;exitY=0.5;exitDx=0;exitDy=0;entryX=0;entryY=0.5;entryDx=0;entryDy=0;" edge="1" parent="lYoupmjdc9CDtrk6pOzM-2" source="lYoupmjdc9CDtrk6pOzM-4" target="lYoupmjdc9CDtrk6pOzM-6">
          <mxGeometry relative="1" as="geometry" />
        </mxCell>
        <mxCell id="lYoupmjdc9CDtrk6pOzM-4" value="1." style="ellipse;whiteSpace=wrap;html=1;" vertex="1" parent="lYoupmjdc9CDtrk6pOzM-2">
          <mxGeometry x="40" y="40" width="40" height="40" as="geometry" />
        </mxCell>
        <mxCell id="lYoupmjdc9CDtrk6pOzM-5" style="edgeStyle=orthogonalEdgeStyle;rounded=0;orthogonalLoop=1;jettySize=auto;html=1;exitX=1;exitY=0.5;exitDx=0;exitDy=0;" edge="1" parent="lYoupmjdc9CDtrk6pOzM-2" source="lYoupmjdc9CDtrk6pOzM-6" target="lYoupmjdc9CDtrk6pOzM-7">
          <mxGeometry relative="1" as="geometry" />
        </mxCell>
        <mxCell id="lYoupmjdc9CDtrk6pOzM-6" value="&lt;div&gt;Кнопка подключения Metamask&lt;/div&gt;" style="rounded=0;whiteSpace=wrap;html=1;fontFamily=Helvetica;fontSize=12;fontColor=#000000;align=center;" vertex="1" parent="lYoupmjdc9CDtrk6pOzM-2">
          <mxGeometry x="120" y="30" width="80" height="60" as="geometry" />
        </mxCell>
        <mxCell id="lYoupmjdc9CDtrk6pOzM-7" value="Балансы токенов на Metamask" style="rounded=0;whiteSpace=wrap;html=1;fontFamily=Helvetica;fontSize=12;fontColor=#000000;align=center;" vertex="1" parent="lYoupmjdc9CDtrk6pOzM-2">
          <mxGeometry x="240" y="30" width="80" height="60" as="geometry" />
        </mxCell>
        <mxCell id="lYoupmjdc9CDtrk6pOzM-8" value="Пулы ликвидности" style="rounded=0;whiteSpace=wrap;html=1;fontFamily=Helvetica;fontSize=12;fontColor=#000000;align=center;" vertex="1" parent="lYoupmjdc9CDtrk6pOzM-2">
          <mxGeometry x="490" y="30" width="80" height="60" as="geometry" />
        </mxCell>
        <mxCell id="lYoupmjdc9CDtrk6pOzM-9" value="" style="swimlane;html=1;startSize=20;horizontal=0;" vertex="1" parent="lYoupmjdc9CDtrk6pOzM-1">
          <mxGeometry x="20" y="120" width="670" height="120" as="geometry" />
        </mxCell>
        <mxCell id="lYoupmjdc9CDtrk6pOzM-10" style="edgeStyle=orthogonalEdgeStyle;rounded=0;orthogonalLoop=1;jettySize=auto;html=1;exitX=1;exitY=0.5;exitDx=0;exitDy=0;entryX=0;entryY=0.5;entryDx=0;entryDy=0;" edge="1" parent="lYoupmjdc9CDtrk6pOzM-9" source="lYoupmjdc9CDtrk6pOzM-11" target="lYoupmjdc9CDtrk6pOzM-12">
          <mxGeometry relative="1" as="geometry" />
        </mxCell>
        <mxCell id="lYoupmjdc9CDtrk6pOzM-11" value="&lt;div&gt;Создание тестовой сети на&amp;nbsp; HardHat&lt;/div&gt;" style="rounded=0;whiteSpace=wrap;html=1;fontFamily=Helvetica;fontSize=12;fontColor=#000000;align=center;" vertex="1" parent="lYoupmjdc9CDtrk6pOzM-9">
          <mxGeometry x="234" y="30" width="80" height="60" as="geometry" />
        </mxCell>
        <mxCell id="lYoupmjdc9CDtrk6pOzM-12" value="&lt;div&gt;Создание собственного тестового токена на localhost&lt;/div&gt;" style="rounded=0;whiteSpace=wrap;html=1;fontFamily=Helvetica;fontSize=12;fontColor=#000000;align=center;" vertex="1" parent="lYoupmjdc9CDtrk6pOzM-9">
          <mxGeometry x="340" y="20" width="80" height="80" as="geometry" />
        </mxCell>
        <mxCell id="lYoupmjdc9CDtrk6pOzM-13" value="" style="swimlane;html=1;startSize=20;horizontal=0;" vertex="1" parent="lYoupmjdc9CDtrk6pOzM-1">
          <mxGeometry x="20" y="240" width="670" height="120" as="geometry" />
        </mxCell>
        <mxCell id="lYoupmjdc9CDtrk6pOzM-14" style="edgeStyle=orthogonalEdgeStyle;rounded=0;orthogonalLoop=1;jettySize=auto;html=1;exitX=0.5;exitY=1;exitDx=0;exitDy=0;entryX=0.568;entryY=0.045;entryDx=0;entryDy=0;entryPerimeter=0;" edge="1" parent="lYoupmjdc9CDtrk6pOzM-1" source="lYoupmjdc9CDtrk6pOzM-7" target="lYoupmjdc9CDtrk6pOzM-11">
          <mxGeometry relative="1" as="geometry" />
        </mxCell>
      </root>
    </mxGraphModel>
  </diagram>
</mxfile>
